<svg width="38" height="31" viewBox="0 0 38 31" fill="none" xmlns="http://www.w3.org/2000/svg">
    <path fill-rule="evenodd" clip-rule="evenodd" d="M37.1974 2.61376C36.6834 7.8936 34.4503 20.7105 33.3167 26.6249C32.8369 29.1299 31.8889 29.9676 30.9751 30.0483C28.9847 30.2265 27.4741 28.7652 25.5466 27.535C22.5311 25.609 20.8263 24.4095 17.8993 22.528C14.5154 20.3542 16.7085 19.1602 18.6361 17.2092C19.1415 16.697 27.9082 8.9234 28.0795 8.21924C28.0995 8.13018 28.1223 7.80175 27.9196 7.62919C27.7168 7.45663 27.4227 7.51508 27.2114 7.56239C26.9087 7.62919 22.0913 10.7325 12.7564 16.8724C11.3886 17.7881 10.1492 18.2334 9.0384 18.2111C7.8162 18.1861 5.46319 17.5376 3.71271 16.9809C1.56816 16.3018 -0.139489 15.94 0.00900244 14.7877C0.0861035 14.1865 0.934216 13.5714 2.55619 12.9424C12.5451 8.70074 19.2072 5.90357 22.5397 4.55091C32.0574 0.693312 34.0334 0.0225481 35.3242 0.000282028C36.9404 -0.021984 37.3288 1.2778 37.1974 2.61376Z" fill="white"/>
</svg>
